<?xml version="1.0" encoding="UTF-8"?>
<svg xmlns="http://www.w3.org/2000/svg" xmlns:xlink="http://www.w3.org/1999/xlink" width="32pt" height="32pt" viewBox="0 0 32 32" version="1.1">
<g id="surface1">
<path style=" stroke:none;fill-rule:nonzero;fill:#5B5B5B;fill-opacity:1;" d="M 16 4 C 12.699219 4 10 6.699219 10 10 C 10 10.992188 10.371094 12.007813 10.863281 13.128906 C 11.132813 13.742188 11.449219 14.371094 11.78125 15 L 6.234375 15 L 2.691406 28 L 29.308594 28 L 25.765625 15 L 20.21875 15 C 20.550781 14.371094 20.867188 13.742188 21.136719 13.128906 C 21.628906 12.007813 22 10.992188 22 10 C 22 6.699219 19.300781 4 16 4 Z M 16 6 C 18.21875 6 20 7.78125 20 10 C 20 10.386719 19.746094 11.3125 19.300781 12.324219 C 18.859375 13.335938 18.25 14.476563 17.636719 15.53125 C 16.820313 16.941406 16.457031 17.441406 16 18.125 C 15.542969 17.441406 15.179688 16.941406 14.363281 15.53125 C 13.75 14.476563 13.140625 13.335938 12.699219 12.324219 C 12.253906 11.3125 12 10.386719 12 10 C 12 7.78125 13.78125 6 16 6 Z M 16 8.5 C 15.171875 8.5 14.5 9.171875 14.5 10 C 14.5 10.828125 15.171875 11.5 16 11.5 C 16.828125 11.5 17.5 10.828125 17.5 10 C 17.5 9.171875 16.828125 8.5 16 8.5 Z M 7.765625 17 L 12.910156 17 C 14.082031 18.976563 15.175781 20.566406 15.175781 20.566406 L 16 21.761719 L 16.824219 20.566406 C 16.824219 20.566406 17.917969 18.976563 19.089844 17 L 24.234375 17 L 26.691406 26 L 5.308594 26 Z "/>
</g>
</svg>
